<svg id="Layer_1" enable-background="new 0 0 510 510" height="512" viewBox="0 0 510 510" width="512" xmlns="http://www.w3.org/2000/svg"><g><g><path d="m240.171.424c-89.356 5.12-143.76 54.933-143.917 55.022 0 0-2.513 3.137-2.983 5.222-2.766 12.28-5.394 27.578-6.635 41.384h256.408z" fill="#afe6ff"/><g><g><path d="m90.579 102.051c.471-15.947 2.406-31.522 5.674-46.606-16.996 13.54-32.21 29.217-45.269 46.606z" fill="#73c8f0"/></g></g></g><path d="m506.933 215.336-157.906-10.129-308.419 143.083.248 45.18c45.434 70.126 124.365 116.53 214.144 116.53 51.589 0 99.875-15.404 140.254-42.031 54.462-35.914 94.542-92.243 108.945-158.73.178-1.087 5.8-23.477 5.8-54.239.001-13.492-1.047-26.739-3.066-39.664z" fill="#a5a0aa"/><g><g><path d="m207.231 73.793h35.904v-36.717h-35.904c-10.139 0-18.358 8.219-18.358 18.358-.001 10.14 8.219 18.359 18.358 18.359z" fill="#fa690f"/></g><g><path d="m244.908 82.367h197.752c-46.394-50.407-112.828-82.073-186.67-82.355z" fill="#fff"/></g><path d="m382.873 34.343h-41.35c-15.877 0-28.472-12.592-29.126-27.855-16.241-3.736-33.076-5.914-50.339-6.382l-17.15 82.26h197.752c-17.348-18.847-37.494-35.076-59.787-48.023z" fill="#a0ebff"/><path d="m410.236 52.703h-161.336l-3.992 29.664h191.408z" fill="#6cdcfe"/><g><path d="m435.217 74.595h-182.69l9.532-74.494c-2.346-.063-4.698-.101-7.059-.101-5.045 0-9.985.154-14.829.431l-12.262 95.832h226.654c-6.041-7.584-12.494-14.824-19.346-21.668z" fill="#ffa50a"/></g><g><path d="m302.899 74.595h-50.372l9.532-74.494c-2.346-.063-4.698-.101-7.059-.101-5.045 0-9.985.154-14.829.431l-12.262 95.832h74.989v-21.668z" fill="#fa870a"/></g><path d="m486.482 147.929-15.272-15.09-1.273-15.085c-10.878-17.003-23.719-32.63-38.204-46.562h-190.84c-25.033 0-45.327 20.293-45.327 45.327v58.712h301.69c-3.077-9.351-6.68-18.463-10.774-27.302z" fill="#ffa50a"/><path d="m486.482 147.929-24.405-10.637h-158.071c-14.036 0-25.414-11.378-25.414-25.414v-40.685h-37.699c-25.033 0-45.327 20.293-45.327 45.327v58.711h301.69c-3.077-9.352-6.68-18.464-10.774-27.302z" fill="#fa870a"/><g><path d="m449.79 257.592h29.705c9.714 0 17.588-7.875 17.588-17.588v-56.984h-64.882v56.984c0 9.714 7.875 17.588 17.589 17.588z" fill="#1e2d64"/></g><g><path d="m257.987 257.592h-29.705c-9.714 0-17.588-7.875-17.588-17.588v-56.984h64.882v56.984c0 9.714-7.875 17.588-17.589 17.588z" fill="#1e2d64"/></g><g><path d="m234.098 240.004v-56.984h-23.403v56.984c0 9.714 7.875 17.588 17.588 17.588h23.403c-9.714 0-17.588-7.874-17.588-17.588z" fill="#0f1446"/></g><g><path d="m456.424 240.004v-56.984h-23.404v56.984c0 9.714 7.875 17.588 17.588 17.588h23.403c-9.713 0-17.587-7.874-17.587-17.588z" fill="#0f1446"/></g><g><path d="m492.151 161.103h-294.392c-7.943 0-14.382 6.439-14.382 14.382v25.471c0 7.943 6.439 14.382 14.382 14.382h309.166c-2.943-18.841-7.944-36.999-14.774-54.235z" fill="#fa690f"/></g><g><path d="m309.769 161.103h-112.01c-7.943 0-14.382 6.439-14.382 14.382v25.471c0 7.943 6.439 14.382 14.382 14.382h112.011v-54.235z" fill="#ff4619"/></g><g><path d="m422.298 215.57h-136.943l9.926-32.768c1.827-6.031 7.385-10.155 13.686-10.155h89.718c6.301 0 11.86 4.124 13.686 10.155z" fill="#e6dcdc"/></g><g><path d="m323.403 172.648h-14.435c-6.301 0-11.86 4.124-13.686 10.155l-9.926 32.768h136.943l-3.497-11.545h-72.117c-16.323 0-28.014-15.757-23.282-31.378z" fill="#c8bec3"/></g><g><path d="m248.139 147.93c6.985 0 11.15-7.729 7.372-13.604-8.814-13.705-24.193-22.785-41.699-22.785h-17.968c-.179 1.636-.278 3.295-.278 4.978v31.411z" fill="#ffa50a"/></g><g><path d="m453.843 194.109h34.734c5.213 0 9.439-4.226 9.439-9.439 0-5.213-4.226-9.439-9.439-9.439h-34.734c-5.213 0-9.439 4.226-9.439 9.439 0 5.213 4.226 9.439 9.439 9.439z" fill="#ffe65a"/></g><g><path d="m469.946 117.748c-7.173 3.985-13.254 9.697-17.679 16.578-3.778 5.875.387 13.604 7.372 13.604h26.842c-4.848-10.461-10.37-20.546-16.535-30.182z" fill="#ffe65a"/></g><g><path d="m404.067 141.626h-45.249c1.959 3.03 2.054 7.259.277 10.401h44.972c2.872 0 5.201-2.329 5.201-5.201s-2.329-5.2-5.201-5.2z" fill="#e6dcdc"/></g><g><path d="m389.077 120.535h-44.143c.35 1.53.567 3.109.639 4.718.087 1.949-.116 3.852-.561 5.682h44.064c2.872 0 5.2-2.328 5.2-5.2s-2.327-5.2-5.199-5.2z" fill="#e6dcdc"/></g><g><path d="m361.453 152.028h-55.804c-2.872 0-5.201-2.329-5.201-5.201s2.329-5.201 5.201-5.201h55.804c2.872 0 5.2 2.329 5.2 5.201s-2.328 5.201-5.2 5.201z" fill="#c8bec3"/></g><g><path d="m346.412 130.936h-25.772c-2.872 0-5.2-2.329-5.2-5.201s2.328-5.201 5.2-5.201h25.772c2.872 0 5.2 2.329 5.2 5.201s-2.328 5.201-5.2 5.201z" fill="#c8bec3"/></g><g><path d="m339.588 57.329h-67.878l7.06-22.591c1.988-6.361 7.879-10.692 14.544-10.692h24.67c6.665 0 12.556 4.331 14.544 10.692z" fill="#6cdcfe"/></g><g><path d="m377.244 31.166c-.691 1.097-1.256 2.291-1.657 3.572l-7.06 22.591h47.558c-12.078-9.854-25.071-18.627-38.841-26.163z" fill="#6cdcfe"/></g><g><path d="m339.584 76.393c-1.14 0-2.288-.373-3.247-1.141l-15.892-12.722h-55.041c-2.872 0-5.201-2.329-5.201-5.201s2.329-5.201 5.201-5.201h56.866c1.182 0 2.328.402 3.25 1.141l17.317 13.863c2.242 1.795 2.604 5.067.81 7.31-1.026 1.284-2.538 1.951-4.063 1.951z" fill="#1e2d64"/></g><path d="m356.469 62.53h55.041l15.893 12.722c.959.768 2.106 1.141 3.247 1.141 1.525 0 3.036-.667 4.063-1.951.053-.066.085-.14.134-.207-7.949-7.909-16.417-15.295-25.348-22.107h-53.03c-2.872 0-5.201 2.329-5.201 5.201s2.329 5.201 5.201 5.201z" fill="#1e2d64"/><g><path d="m289.269 62.53h-23.864c-2.872 0-5.2-2.329-5.2-5.201s2.328-5.201 5.2-5.201h23.864c2.872 0 5.2 2.329 5.2 5.201s-2.328 5.201-5.2 5.201z" fill="#1e1632"/></g><g><path d="m383.333 62.53h-26.864c-2.872 0-5.2-2.329-5.2-5.201s2.328-5.201 5.2-5.201h26.864c2.872 0 5.2 2.329 5.2 5.201s-2.328 5.201-5.2 5.201z" fill="#1e1632"/></g></g><g><g><path d="m274.146 212.778h-35.904v-36.717h35.904c10.139 0 18.358 8.219 18.358 18.358 0 10.14-8.219 18.359-18.358 18.359z" fill="#18a300"/></g><g><path d="m83.225 221.352h152.416l-11.721-87.105c-1.875-13.935-13.768-24.335-27.829-24.335h-112.866z" fill="#fff"/></g><g><path d="m85.525 140.286 5.72-30.375h-33.89c-14.061 0-26.888 23.205-28.763 37.141l-10.787 74.3h217.837l-4.829-48.023h-116.394c-17.646-.001-31.247-15.554-28.894-33.043z" fill="#a0ebff"/></g><g><path d="m231.428 191.688h-209.632l-3.992 29.664h217.837l-3.993-29.675c-.075.001-.145.011-.22.011z" fill="#6cdcfe"/></g><g><path d="m217.608 132.188 10.343 80.835h21.845l-10.706-83.675c-2.168-16.11-15.917-28.134-32.173-28.134h-143.068v21.669h143.068c5.364 0 9.951 3.997 10.691 9.305z" fill="#64bc0f"/></g><g><path d="m75.795 213.58h-50.372l10.414-81.392c.739-5.308 5.327-9.305 10.691-9.305h18.432c5.984 0 10.834-4.851 10.834-10.834 0-5.984-4.851-10.834-10.834-10.834h-13.355c-23.557 31.104-40.138 67.778-47.43 107.697l-3.37 26.337h74.99z" fill="#18a300"/></g><g><path d="m239.656 210.178h-191v104.038h236.327v-58.711c0-25.034-20.293-45.327-45.327-45.327z" fill="#64bc0f"/></g><path d="m76.902 276.278c-14.036 0-25.414-11.378-25.414-25.414v-40.686h-37.699c-3.455 0-6.815.4-10.049 1.132-2.307 13.357-3.583 27.067-3.727 41.049l9.257 20.198-7.284 14.359c1.16 9.263 2.817 18.373 4.941 27.301h278.056v-37.938h-208.081z" fill="#18a300"/><g><path d="m222.686 396.578h29.705c9.714 0 17.588-7.875 17.588-17.588v-56.984h-64.882v56.984c0 9.713 7.875 17.588 17.589 17.588z" fill="#1e2d64"/></g><path d="m20.082 354.317c5.799 13.706 12.763 26.8 20.77 39.157 4.601-3.172 7.62-8.473 7.62-14.484v-56.984z" fill="#1e2d64"/><g><path d="m229.32 378.989v-56.984h-23.403v56.984c0 9.714 7.875 17.588 17.588 17.588h23.403c-9.713.001-17.588-7.874-17.588-17.588z" fill="#0f1446"/></g><g><path d="m284.853 300.088h-204.49v54.235h204.49c7.943 0 14.382-6.439 14.382-14.382v-25.471c0-7.943-6.439-14.382-14.382-14.382z" fill="#1a9600"/></g><path d="m3.974 300.088c.849 4.757 1.83 9.469 2.938 14.131l8.004 9.368-2.733 9.512c2.321 7.22 4.954 14.3 7.885 21.224h62.598v-54.235z" fill="#1a8400"/><path d="m185.268 321.787c-1.827-6.03-7.385-10.155-13.686-10.155h-75.283l-15.936 5.023-10.522 24.825 125.353 13.075-3.497-11.545z" fill="#e6dcdc"/><g><path d="m96.299 311.633h-14.435c-6.301 0-11.86 4.124-13.686 10.155l-9.926 32.768h136.943l-3.497-11.545h-72.118c-16.322 0-28.013-15.757-23.281-31.378z" fill="#c8bec3"/></g><g><path d="m26.83 314.216h-19.903c1.52 6.39 3.282 12.685 5.273 18.878h14.63c5.213 0 9.439-4.226 9.439-9.439s-4.226-9.439-9.439-9.439z" fill="#ffe65a"/></g><g><path d="m1.984 286.915h19.051c6.985 0 11.15-7.729 7.372-13.604-6.487-10.087-16.538-17.653-28.368-20.953-.01.882-.039 1.758-.039 2.642 0 10.809.679 21.46 1.984 31.915z" fill="#ffa50a"/></g><g><path d="m226.739 333.094h34.734c5.213 0 9.439-4.226 9.439-9.439 0-5.213-4.226-9.439-9.439-9.439h-34.734c-5.213 0-9.439 4.226-9.439 9.439 0 5.213 4.226 9.439 9.439 9.439z" fill="#ffe65a"/></g><g><path d="m232.534 286.915c-6.985 0-11.15-7.729-7.372-13.604 8.814-13.705 24.193-22.785 41.699-22.785h17.968c.179 1.636.278 3.295.278 4.978v31.411z" fill="#ffa50a"/></g><g><path d="m176.963 291.013h-98.418c-2.872 0-5.201-2.329-5.201-5.201s2.329-5.201 5.201-5.201h98.418c2.872 0 5.201 2.329 5.201 5.201s-2.329 5.201-5.201 5.201z" fill="#1a8400"/></g><g><path d="m161.973 269.921h-68.438c-2.872 0-5.2-2.328-5.2-5.2s2.328-5.2 5.2-5.2h68.438c2.872 0 5.2 2.328 5.2 5.2s-2.328 5.2-5.2 5.2z" fill="#1a8400"/></g><g><path d="m117.601 291.013h-39.056c-2.872 0-5.201-2.328-5.201-5.2s2.329-5.2 5.201-5.2h39.056c2.872 0 5.201 2.328 5.201 5.2s-2.329 5.2-5.201 5.2z" fill="#186d00"/></g><g><path d="m110.665 269.921h-17.13c-2.872 0-5.201-2.329-5.201-5.201s2.329-5.201 5.201-5.201h17.13c2.872 0 5.201 2.329 5.201 5.201s-2.329 5.201-5.201 5.201z" fill="#186d00"/></g><g><path d="m112.484 196.314h-67.878l7.06-22.591c1.988-6.361 7.879-10.692 14.544-10.692h24.67c6.665 0 12.556 4.331 14.544 10.692z" fill="#6cdcfe"/></g><g><path d="m209.302 196.314h-67.878l7.06-22.591c1.988-6.361 7.879-10.692 14.544-10.692h24.67c6.665 0 12.556 4.331 14.544 10.692z" fill="#6cdcfe"/></g><g><path d="m141.828 145.212h-30.344c-6.166 0-11.164-4.998-11.164-11.164 0-6.166 4.998-11.164 11.164-11.164h30.344c6.166 0 11.164 4.998 11.164 11.164 0 6.165-4.999 11.164-11.164 11.164z" fill="#6cdcfe"/></g><g><path d="m112.48 215.378c-1.14 0-2.288-.373-3.247-1.141l-15.892-12.723h-55.041c-2.872 0-5.201-2.328-5.201-5.2s2.329-5.2 5.201-5.2h56.867c1.182 0 2.328.402 3.25 1.141l17.317 13.864c2.242 1.795 2.604 5.067.81 7.31-1.027 1.282-2.539 1.949-4.064 1.949z" fill="#1e2d64"/></g><g><path d="m203.545 215.378c-1.14 0-2.288-.373-3.247-1.141l-15.893-12.723h-55.041c-2.872 0-5.201-2.328-5.201-5.2s2.329-5.2 5.201-5.2h56.866c1.182 0 2.328.402 3.25 1.141l17.317 13.864c2.242 1.795 2.604 5.067.81 7.31-1.026 1.282-2.537 1.949-4.062 1.949z" fill="#1e2d64"/></g><g><path d="m62.114 201.515h-23.814c-2.872 0-5.201-2.329-5.201-5.201s2.329-5.201 5.201-5.201h23.814c2.872 0 5.201 2.329 5.201 5.201s-2.329 5.201-5.201 5.201z" fill="#1e1632"/></g><g><path d="m157.798 201.515h-28.433c-2.872 0-5.201-2.329-5.201-5.201s2.329-5.201 5.201-5.201h28.433c2.872 0 5.2 2.329 5.2 5.201s-2.328 5.201-5.2 5.201z" fill="#1e1632"/></g></g><g><g><path d="m189.892 326.188h35.904v-36.717h-35.904c-10.139 0-18.358 8.219-18.358 18.358 0 10.139 8.219 18.359 18.358 18.359z" fill="#dc1428"/></g><g><path d="m483.911 326.188h-35.904v-36.717h35.904c10.139 0 18.358 8.219 18.358 18.358 0 10.139-8.219 18.359-18.358 18.359z" fill="#f22c2c"/></g><g><path d="m405.856 223.32h-138.736c-14.061 0-25.954 10.4-27.829 24.335l-11.721 87.105h217.837l-11.721-87.105c-1.876-13.935-13.769-24.335-27.83-24.335z" fill="#fff"/></g><g><path d="m295.29 253.695 5.72-30.375h-33.89c-14.061 0-25.954 10.4-27.829 24.335l-11.721 87.105h217.837l-4.829-48.023h-116.394c-17.646.001-31.247-15.553-28.894-33.042z" fill="#a0ebff"/></g><g><path d="m441.193 305.097h-209.632l-3.992 29.664h217.837l-3.993-29.675c-.075.002-.145.011-.22.011z" fill="#6cdcfe"/></g><g><path d="m416.682 236.293c5.364 0 9.952 3.997 10.691 9.305l10.414 81.392h-202.599l10.414-81.392c.739-5.308 5.327-9.305 10.691-9.305zm0-21.669h-160.388c-16.255 0-30.005 12.023-32.173 28.134l-13.55 105.901h251.834l-13.55-105.901c-2.168-16.111-15.918-28.134-32.173-28.134z" fill="#ff3c3c"/></g><g><path d="m285.56 326.99h-50.372l10.414-81.392c.739-5.308 5.327-9.305 10.691-9.305h18.432c5.984 0 10.834-4.851 10.834-10.834 0-5.984-4.851-10.834-10.834-10.834h-18.432c-16.255 0-30.005 12.023-32.173 28.134l-13.55 105.901h74.989v-21.67z" fill="#f22c2c"/></g><path d="m494.479 363.949c-2.473-22.697-21.703-40.361-45.058-40.361h-225.867c-25.033 0-45.327 20.294-45.327 45.327v58.712h316.521v-27.301l-9.258-18.194z" fill="#ff3c3c"/><g><path d="m261.253 364.273v-40.686h-37.699c-23.351 0-42.577 17.657-45.057 40.348-.179 1.635 14.858 17.712 14.858 19.395l-15.128 16.995v27.301h316.521v-37.938h-208.081c-14.036-.001-25.414-11.379-25.414-25.415z" fill="#f22c2c"/></g><g><path d="m432.451 509.987h29.705c9.714 0 17.588-7.875 17.588-17.589v-56.984h-64.882v56.984c0 9.714 7.875 17.589 17.589 17.589z" fill="#1e2d64"/></g><g><path d="m240.649 509.987h-29.705c-9.714 0-17.588-7.875-17.588-17.589v-56.984h64.882v56.984c-.001 9.714-7.875 17.589-17.589 17.589z" fill="#1e2d64"/></g><g><path d="m216.759 492.399v-56.984h-23.403v56.984c0 9.714 7.875 17.588 17.588 17.588h23.403c-9.714 0-17.588-7.875-17.588-17.588z" fill="#0f1446"/></g><g><path d="m439.085 492.399v-56.984h-23.403v56.984c0 9.714 7.875 17.588 17.588 17.588h23.403c-9.713 0-17.588-7.875-17.588-17.588z" fill="#0f1446"/></g><g><path d="m494.618 467.732h-89.659l-62.217-14.516-74.726 14.516h-87.596c-7.943 0-14.382-6.439-14.382-14.382v-25.471c0-7.943 6.439-14.382 14.382-14.382h314.198c7.943 0 14.382 6.439 14.382 14.382v25.471c0 7.943-6.439 14.382-14.382 14.382z" fill="#dc1428"/></g><g><path d="m292.43 413.498h-112.01c-7.943 0-14.382 6.439-14.382 14.382v25.471c0 7.943 6.439 14.382 14.382 14.382h87.597l24.414-21.229v-33.006z" fill="#be1423"/></g><g><path d="m404.959 467.965h-136.943l9.926-32.768c1.827-6.031 7.385-10.155 13.686-10.155h89.718c6.301 0 11.86 4.124 13.686 10.155z" fill="#1e2d64"/></g><g><path d="m306.064 425.042h-14.435c-6.301 0-11.86 4.124-13.686 10.155l-9.926 32.768h136.943l-3.497-11.544h-72.117c-16.323-.001-28.014-15.758-23.282-31.379z" fill="#0f1446"/></g><g><path d="m236.595 446.504h-34.734c-5.213 0-9.439-4.226-9.439-9.439 0-5.213 4.226-9.439 9.439-9.439h34.734c5.213 0 9.439 4.226 9.439 9.439 0 5.213-4.226 9.439-9.439 9.439z" fill="#ffe65a"/></g><g><path d="m230.8 400.325c6.985 0 11.15-7.729 7.372-13.604-8.814-13.705-24.193-22.785-41.699-22.785h-17.968c-.179 1.635-.278 3.295-.278 4.978v31.411z" fill="#ffa50a"/></g><g><path d="m436.504 446.504h34.734c5.213 0 9.439-4.226 9.439-9.439 0-5.213-4.226-9.439-9.439-9.439h-34.734c-5.213 0-9.439 4.226-9.439 9.439 0 5.213 4.226 9.439 9.439 9.439z" fill="#ffe65a"/></g><g><path d="m442.299 400.325c-6.985 0-11.15-7.729-7.372-13.604 8.814-13.705 24.193-22.785 41.699-22.785h17.968c.179 1.635.278 3.295.278 4.978v31.411z" fill="#ffa50a"/></g><g><path d="m386.728 404.423h-98.418c-2.872 0-5.201-2.329-5.201-5.201s2.329-5.201 5.201-5.201h98.418c2.872 0 5.201 2.329 5.201 5.201s-2.329 5.201-5.201 5.201z" fill="#1e2d64"/></g><g><path d="m371.738 383.33h-68.438c-2.872 0-5.2-2.328-5.2-5.2s2.328-5.2 5.2-5.2h68.438c2.872 0 5.2 2.328 5.2 5.2s-2.328 5.2-5.2 5.2z" fill="#1e2d64"/></g><g><path d="m331.724 404.422h-43.414c-2.872 0-5.201-2.328-5.201-5.2s2.329-5.2 5.201-5.2h43.415c2.872 0 5.201 2.328 5.201 5.2s-2.329 5.2-5.202 5.2z" fill="#1e1632"/></g><g><path d="m322.735 383.331h-19.435c-2.872 0-5.2-2.329-5.2-5.201s2.328-5.201 5.2-5.201h19.435c2.872 0 5.2 2.329 5.2 5.201s-2.328 5.201-5.2 5.201z" fill="#1e1632"/></g><g><path d="m322.249 309.724h-67.878l7.06-22.591c1.988-6.361 7.879-10.692 14.544-10.692h24.67c6.665 0 12.556 4.331 14.544 10.692z" fill="#6cdcfe"/></g><g><path d="m419.067 309.724h-67.878l7.06-22.591c1.988-6.361 7.879-10.692 14.544-10.692h24.67c6.665 0 12.556 4.331 14.544 10.692z" fill="#6cdcfe"/></g><g><path d="m351.593 258.621h-30.344c-6.166 0-11.164-4.998-11.164-11.164 0-6.166 4.998-11.164 11.164-11.164h30.344c6.166 0 11.164 4.998 11.164 11.164 0 6.166-4.999 11.164-11.164 11.164z" fill="#6cdcfe"/></g><g><path d="m322.245 328.788c-1.14 0-2.288-.373-3.247-1.141l-15.892-12.723h-55.042c-2.872 0-5.201-2.329-5.201-5.201s2.329-5.201 5.201-5.201h56.867c1.182 0 2.328.402 3.25 1.141l17.317 13.864c2.242 1.795 2.604 5.067.81 7.31-1.026 1.284-2.538 1.951-4.063 1.951z" fill="#1e2d64"/></g><g><path d="m413.31 328.788c-1.14 0-2.288-.373-3.247-1.141l-15.892-12.723h-55.041c-2.872 0-5.201-2.329-5.201-5.201s2.329-5.201 5.201-5.201h56.867c1.182 0 2.328.402 3.25 1.141l17.317 13.864c2.242 1.795 2.604 5.067.81 7.31-1.028 1.284-2.539 1.951-4.064 1.951z" fill="#1e2d64"/></g><g><path d="m274.93 314.924h-26.865c-2.872 0-5.201-2.329-5.201-5.201s2.329-5.201 5.201-5.201h26.865c2.872 0 5.2 2.329 5.2 5.201s-2.328 5.201-5.2 5.201z" fill="#1e1632"/></g><g><path d="m359.994 314.924h-20.864c-2.872 0-5.201-2.329-5.201-5.201s2.329-5.201 5.201-5.201h20.864c2.872 0 5.201 2.329 5.201 5.201s-2.329 5.201-5.201 5.201z" fill="#1e1632"/></g></g></g></svg>